<svg xmlns:xlink="http://www.w3.org/1999/xlink" width="145" height="58" viewBox="0 0 145 58" fill="none" xmlns="http://www.w3.org/2000/svg">
<g clip-path="url(#clip0_2177_5529)" fill="none">
<path d="M28.4762 0H16.9392L10.4752 16.9511C11.7141 17.2425 12.7841 17.748 12.7841 17.748C12.7841 17.748 11.7392 15.263 12.1606 14.2691C13.1043 15.5543 13.871 16.4284 16.1297 16.146C15.8434 15.4689 15.0849 14.8435 14.1241 14.672C15.7254 13.8579 17.0905 14.0466 18.6245 14.869C18.6496 14.8773 18.6666 14.8945 18.6917 14.9117C18.8179 14.0721 19.1049 13.1719 19.6776 12.3068C19.6776 12.3068 19.8377 12.0155 20.1077 12.0327C20.3859 12.0499 20.5372 12.5727 20.5372 12.5727C20.5372 12.5727 20.9334 13.5838 21.1696 14.6548C21.5237 14.0032 21.9871 13.3351 22.5937 12.7435C22.973 12.375 23.7817 12.1952 23.3523 13.4116C23.0822 14.174 23.5714 15.5881 23.9758 16.5393L25.2228 17.4133C25.7622 18.0814 31.7289 24.2265 31.9141 25.0406C32.0573 25.6488 31.7628 27.3804 31.4758 27.8515C31.1895 28.3226 29.8244 28.8715 29.1499 28.3832C28.5013 27.9031 27.7936 27.2006 27.7936 27.2006C27.7936 27.2006 23.8157 25.3582 22.804 25.5979C20.0317 26.0607 18.2785 25.7349 17.4358 24.792C17.1916 24.4662 17.0484 24.0805 16.9894 23.6783C16.8713 22.7953 17.0654 21.904 17.3347 21.0734C17.0396 21.4419 16.7282 21.8276 16.492 22.2732C16.2478 22.7188 16.0286 23.2244 15.9275 23.8415C15.8685 24.2444 15.8685 24.7245 15.9947 25.2211C14.7809 25.8982 13.4416 26.5236 12.396 27.0036C9.8001 28.6835 7.22184 30.9971 3.70727 34.7246L0 44.4596H11.8654L14.2252 36.9356H30.8862L33.3132 44.4596H45.4235L33.7433 13.8228L28.4762 0Z" fill="#012855"></path>
<path d="M58.0145 17.3154H48.7368V44.1537H58.0145V17.3154Z" fill="#012855"></path>
<path d="M58.2253 8.01123H48.5562V15.0139H58.2253V8.01123Z" fill="#012855"></path>
<path d="M89.5152 17.3154H79.1377L71.8344 25.2609V8.0708H62.6226V44.1551H71.8344V37.9383L74.1989 35.0496L79.6045 44.1551H89.7425L80.3562 28.1269L89.5152 17.3154Z" fill="#012855"></path>
<path d="M102.353 16.8179C94.7021 16.8179 88.897 22.5015 88.897 30.5525C88.897 39.8432 95.2144 44.7355 103.13 44.7355C107.935 44.7355 112.185 42.8724 114.492 39.2619L109.281 35.0501C107.654 36.7011 106.224 37.7025 103.438 37.7025C100.651 37.7025 98.6482 36.3264 97.7173 33.3909H115.516V30.9024C115.516 24.8034 111.932 16.8179 102.353 16.8179ZM97.7173 28.575C97.7173 25.8682 99.9516 23.7282 102.353 23.7282C104.453 23.7282 106.785 25.5018 106.785 28.575H97.7173Z" fill="#012855"></path>
<path d="M135.758 16.8179C132.826 16.8179 130.667 18.4082 128.08 20.5985V17.3785H118.897V44.1239H128.138L128.08 29.8134C128.08 27.5812 129.428 25.1044 132.023 25.1044C134.041 25.1044 135.758 26.3979 135.758 29.8134V44.1555H145V25.8682C145 20.1508 141.27 16.8179 135.758 16.8179Z" fill="#012855"></path>
<path d="M3.93456 55.5582C3.93456 56.287 3.42637 56.8132 2.64475 56.8132C1.86313 56.8132 1.35494 56.287 1.35494 55.5582V51.5317H0.012207V55.6733C0.012207 57.0687 1.06047 57.9999 2.64475 57.9999C4.22902 57.9999 5.27729 57.0687 5.27729 55.6733V51.5317H3.93456V55.5582Z" fill="#E4012B"></path>
<path d="M10.2614 55.5424H10.2051L7.46399 51.5317H6.28613V57.909H7.62886V53.8956H7.675L10.4378 57.909H11.5973V51.5317H10.2614V55.5424Z" fill="#E4012B"></path>
<path d="M13.9536 51.5317H12.6108V57.909H13.9536V51.5317Z" fill="#E4012B"></path>
<path d="M17.7033 56.3772H17.6442L16.1095 51.5317H14.6182L16.8104 57.909H18.5405L20.73 51.5317H19.2414L17.7033 56.3772Z" fill="#E4012B"></path>
<path d="M22.7405 55.2752H25.4572V54.1628H22.7405V52.6434H25.677V51.5317H21.3984V57.909H25.6899V56.7973H22.7405V55.2752Z" fill="#E4012B"></path>
<path d="M31.4298 53.6152C31.4298 52.3479 30.5959 51.5317 29.1541 51.5317H26.6484V57.909H27.9912V55.6485H28.9709L30.1739 57.909H31.6564L30.3075 55.4308C31.0301 55.1188 31.4298 54.4872 31.4298 53.6152ZM28.9031 54.565H27.9912V52.6344H28.8963C29.6718 52.6344 30.047 52.9795 30.047 53.6152C30.047 54.251 29.6718 54.565 28.9031 54.565Z" fill="#E4012B"></path>
<path d="M35.1971 54.213L34.6265 54.0759C34.0749 53.9485 33.6129 53.7425 33.6217 53.2852C33.6217 52.874 33.9847 52.5716 34.6421 52.5716C35.2996 52.5716 35.6775 52.8644 35.7277 53.3658H37.0141C36.9958 52.2293 36.0656 51.4448 34.6516 51.4448C33.2377 51.4448 32.2389 52.2169 32.245 53.3754C32.2423 54.3156 32.9025 54.8542 33.9752 55.1125L34.6672 55.2874C35.3586 55.4555 35.7426 55.6545 35.746 56.0843C35.7426 56.5513 35.3023 56.8688 34.6204 56.8688C33.9385 56.8688 33.4202 56.5451 33.3768 55.9066H32.0781C32.112 57.2862 33.0952 57.9998 34.636 57.9998C36.1769 57.9998 37.0983 57.2552 37.101 56.0878C37.0983 55.0257 36.301 54.4616 35.1971 54.213Z" fill="#E4012B"></path>
<path d="M39.2514 51.5317H37.9087V57.909H39.2514V51.5317Z" fill="#E4012B"></path>
<path d="M40.0181 52.6434H41.9619V57.909H43.2891V52.6434H45.2336V51.5317H40.0181V52.6434Z" fill="#E4012B"></path>
<path d="M48.6384 54.2785H48.5759L47.128 51.5317H45.6245L47.9402 55.6547V57.909H49.2741V55.6547L51.5898 51.5317H50.0863L48.6384 54.2785Z" fill="#E4012B"></path>
<path d="M57.0143 51.4448C55.3215 51.4448 54.0405 52.6343 54.0405 54.7206C54.0405 56.8068 55.3215 57.9963 57.0143 57.9963C58.7072 57.9963 59.9882 56.8068 59.9882 54.7206C59.9882 52.6343 58.6984 51.4448 57.0143 51.4448ZM57.0143 56.8034C56.0373 56.8034 55.4016 56.0719 55.4016 54.7206C55.4016 53.3692 56.0373 52.6371 57.0143 52.6371C57.9914 52.6371 58.6264 53.3692 58.6264 54.7206C58.6264 56.0719 57.988 56.8034 57.0143 56.8034Z" fill="#E4012B"></path>
<path d="M60.8862 57.909H62.229V55.2752H64.812V54.1628H62.229V52.6434H65.0908V51.5317H60.8862V57.909Z" fill="#E4012B"></path>
<path d="M70.7379 54.213L70.1673 54.0759C69.615 53.9485 69.1529 53.7425 69.1624 53.2852C69.1624 52.874 69.5254 52.5716 70.1829 52.5716C70.8403 52.5716 71.2182 52.8644 71.2678 53.3658H72.5549C72.5359 52.2293 71.6057 51.4448 70.1917 51.4448C68.7777 51.4448 67.7796 52.2169 67.7858 53.3754C67.7824 54.3156 68.4432 54.8542 69.5159 55.1125L70.2073 55.2874C70.8987 55.4555 71.2834 55.6545 71.2861 56.0843C71.2834 56.5513 70.843 56.8688 70.1611 56.8688C69.4793 56.8688 68.9609 56.5451 68.9175 55.9066H67.6182C67.6521 57.2862 68.6352 57.9998 70.1761 57.9998C71.7169 57.9998 72.6383 57.2552 72.6417 56.0878C72.6383 55.0257 71.8418 54.4616 70.7379 54.213Z" fill="#E4012B"></path>
<path d="M76.3105 51.4448C74.6177 51.4448 73.3374 52.6343 73.3374 54.7206C73.3374 56.8068 74.6177 57.9963 76.3105 57.9963C78.0034 57.9963 79.2844 56.8068 79.2844 54.7206C79.2844 52.6343 77.9945 51.4448 76.3105 51.4448ZM76.3105 56.8034C75.3342 56.8034 74.6984 56.0719 74.6984 54.7206C74.6984 53.3692 75.3342 52.6371 76.3105 52.6371C77.2869 52.6371 77.9233 53.3692 77.9233 54.7206C77.9233 56.0719 77.2842 56.8034 76.3105 56.8034Z" fill="#E4012B"></path>
<path d="M84.1056 55.5582C84.1056 56.287 83.5968 56.8132 82.8152 56.8132C82.0335 56.8132 81.5253 56.287 81.5253 55.5582V51.5317H80.1826V55.6733C80.1826 57.0687 81.2309 57.9999 82.8152 57.9999C84.3994 57.9999 85.4484 57.0687 85.4484 55.6733V51.5317H84.1056V55.5582Z" fill="#E4012B"></path>
<path d="M86.2148 52.6434H88.1587V57.909H89.4858V52.6434H91.4304V51.5317H86.2148V52.6434Z" fill="#E4012B"></path>
<path d="M96.2616 54.1628H93.5361V51.5317H92.1934V57.909H93.5361V55.2752H96.2616V57.909H97.6009V51.5317H96.2616V54.1628Z" fill="#E4012B"></path>
<path d="M103.414 52.6371C104.149 52.6371 104.679 53.0634 104.782 53.7646H106.14C105.963 52.2913 104.853 51.4448 103.384 51.4448C101.706 51.4448 100.425 52.6343 100.425 54.7206C100.425 56.8068 101.684 57.9963 103.384 57.9963C105.083 57.9963 105.994 56.9095 106.14 55.7358L104.782 55.7296C104.654 56.4115 104.121 56.8034 103.405 56.8034C102.44 56.8034 101.786 56.0843 101.786 54.7206C101.786 53.3568 102.432 52.6371 103.414 52.6371Z" fill="#E4012B"></path>
<path d="M108.735 51.5317L106.543 57.909H107.981L108.453 56.455H110.744L111.216 57.909H112.654L110.465 51.5317H108.735ZM108.794 55.4026L109.575 52.9892H109.625L110.406 55.4026H108.794Z" fill="#E4012B"></path>
<path d="M118.105 53.6152C118.105 52.3479 117.27 51.5317 115.828 51.5317H113.323V57.909H114.665V55.6485H115.645L116.849 57.909H118.331L116.982 55.4308C117.704 55.1188 118.105 54.4872 118.105 53.6152ZM115.577 54.565H114.665V52.6344H115.571C116.346 52.6344 116.721 52.9795 116.721 53.6152C116.721 54.251 116.346 54.565 115.577 54.565Z" fill="#E4012B"></path>
<path d="M121.82 51.4448C120.126 51.4448 118.846 52.6343 118.846 54.7206C118.846 56.8068 120.126 57.9963 121.82 57.9963C123.513 57.9963 124.793 56.8068 124.793 54.7206C124.793 52.6343 123.503 51.4448 121.82 51.4448ZM121.82 56.8034C120.842 56.8034 120.207 56.0719 120.207 54.7206C120.207 53.3692 120.842 52.6371 121.82 52.6371C122.797 52.6371 123.432 53.3692 123.432 54.7206C123.432 56.0719 122.793 56.8034 121.82 56.8034Z" fill="#E4012B"></path>
<path d="M127.034 51.5317H125.691V57.909H129.756V56.7973H127.034V51.5317Z" fill="#E4012B"></path>
<path d="M131.892 51.5317H130.549V57.909H131.892V51.5317Z" fill="#E4012B"></path>
<path d="M136.876 55.5424H136.82L134.079 51.5317H132.901V57.909H134.243V53.8956H134.29L137.053 57.909H138.213V51.5317H136.876V55.5424Z" fill="#E4012B"></path>
<path d="M142.804 51.5317H141.074L138.881 57.909H140.32L140.791 56.455H143.083L143.554 57.909H144.993L142.804 51.5317ZM141.133 55.4026L141.914 52.9892H141.964L142.745 55.4026H141.133Z" fill="#E4012B"></path>
</g>
<defs>
<clipPath>
<rect width="145" height="58" fill="white"></rect>
</clipPath>
</defs>
</svg>