<svg width="634" height="513" viewBox="0 0 634 513" fill="none" xmlns="http://www.w3.org/2000/svg">
<g clip-path="url(#clip0_2177_7103)">
<path d="M470.964 144.269L397.468 -46H236.435L146.212 187.343C163.499 191.347 178.443 198.307 178.443 198.307C178.443 198.307 163.866 164.096 169.726 150.422C182.911 168.126 193.606 180.139 225.129 176.257C221.125 166.929 210.552 158.334 197.122 155.965C219.464 144.757 238.534 147.345 259.924 158.676C260.29 158.798 260.51 159.017 260.876 159.262C262.634 147.712 266.639 135.307 274.648 123.391C274.648 123.391 276.894 119.386 280.655 119.606C284.537 119.85 286.661 127.029 286.661 127.029C286.661 127.029 292.18 140.948 295.476 155.697C300.408 146.735 306.879 137.529 315.352 129.398C320.65 124.319 331.931 121.853 325.949 138.604C322.189 149.104 329.001 168.565 334.666 181.653L352.076 193.692C359.596 202.897 442.884 287.483 445.473 298.667C447.475 307.042 443.348 330.875 439.344 337.37C435.339 343.865 416.294 351.411 406.869 344.695C397.81 338.078 387.921 328.408 387.921 328.408C387.921 328.408 332.395 303.038 318.282 306.358C279.58 312.732 255.114 308.239 243.345 295.272C239.926 290.779 237.924 285.481 237.118 279.938C235.482 267.777 238.168 255.519 241.953 244.067C237.826 249.146 233.48 254.445 230.184 260.574C226.765 266.703 223.713 273.662 222.297 282.16C221.467 287.703 221.467 294.32 223.249 301.157C206.303 310.485 187.6 319.081 173.022 325.698C136.787 348.822 100.795 380.664 51.7407 431.991L0 566H165.624L198.563 462.417H431.115L464.982 566H634L470.964 144.293V144.269Z" fill="#F5F3F1"/>
</g>
<defs>
<clipPath id="clip0_2177_7103">
<rect width="634" height="612" fill="white" transform="translate(0 -46)"/>
</clipPath>
</defs>
</svg>
