<svg xmlns:xlink="http://www.w3.org/1999/xlink" viewBox="0 0 91 36" fill="none" xmlns="http://www.w3.org/2000/svg" width="91"  height="36" >
<g clip-path="url(#clip0_1987_9363)" fill="none">
<path d="M17.7679 0H10.5693L6.53607 10.5214C7.3091 10.7022 7.97672 11.016 7.97672 11.016C7.97672 11.016 7.32476 9.47357 7.58766 8.85625C8.17654 9.65398 8.65492 10.1965 10.0642 10.0212C9.8856 9.60097 9.41229 9.21279 8.81283 9.10634C9.81193 8.60103 10.6637 8.71816 11.6209 9.22861C11.632 9.23225 11.6406 9.2387 11.6502 9.24596C11.6542 9.24892 11.6583 9.25202 11.6628 9.25511C11.7416 8.73398 11.9206 8.17523 12.2779 7.63828C12.2779 7.63828 12.3778 7.45744 12.5463 7.46813C12.7199 7.47882 12.8143 7.8033 12.8143 7.8033C12.8143 7.8033 13.0616 8.43088 13.2089 9.09565C13.4299 8.69123 13.719 8.27655 14.0975 7.90932C14.3341 7.6806 14.8388 7.56902 14.5708 8.32443C14.4023 8.79768 14.7075 9.67535 14.9598 10.2657L15.738 10.8082C15.8315 10.9234 16.1863 11.301 16.6525 11.7971C17.8646 13.0868 19.8295 15.1775 19.913 15.5425C20.0023 15.92 19.8186 16.9947 19.6395 17.2871C19.4609 17.5795 18.6091 17.9203 18.1883 17.6172C17.7836 17.3192 17.342 16.8831 17.342 16.8831C17.342 16.8831 14.8599 15.7395 14.2287 15.8883C12.4989 16.1756 11.405 15.9734 10.8792 15.3881C10.7268 15.1859 10.6375 14.9465 10.6006 14.6969C10.527 14.1488 10.648 13.5956 10.8161 13.0796L10.8052 13.0932C10.6243 13.3178 10.4347 13.5532 10.2903 13.8243C10.1379 14.1009 10.0012 14.4147 9.93809 14.7977C9.90126 15.0478 9.90126 15.3458 9.98 15.654C9.22263 16.0743 8.38694 16.4625 7.73456 16.7604C6.11484 17.8031 4.50611 19.2391 2.31317 21.5528L0 27.5956H7.40351L8.87591 22.9255H19.2716L20.786 27.5956H28.3423L17.7679 0Z" fill="#FFFFFF"></path>
<path d="M36.1984 10.7476H30.4095V27.4058H36.1984V10.7476Z" fill="#FFFFFF"></path>
<path d="M36.33 9.31882V4.97278H30.2969V9.31882H36.33Z" fill="#FFFFFF"></path>
<path d="M55.8535 10.7475L50.1388 17.4581L55.9954 27.4066H49.6697L46.2969 21.755L44.8215 23.548V27.4066H39.0737V5.00952H44.8215V15.6793L49.3784 10.7475H55.8535Z" fill="#FFFFFF"></path>
<path fill-rule="evenodd" clip-rule="evenodd" d="M72.0771 20.7256V19.181C72.0771 15.3954 69.8405 10.4389 63.8637 10.4389C59.09 10.4389 55.4679 13.9667 55.4679 18.9638C55.4679 24.7304 59.4097 27.767 64.3489 27.767C67.347 27.767 69.9989 26.6106 71.4383 24.3696L68.1865 21.7554C67.1718 22.7802 66.2793 23.4018 64.5406 23.4018C62.802 23.4018 61.5522 22.5476 60.9714 20.7256H72.0771ZM60.9714 17.7364C60.9714 16.0563 62.3655 14.7281 63.8637 14.7281C65.1744 14.7281 66.6294 15.8289 66.6294 17.7364H60.9714Z" fill="#FFFFFF"></path>
<path d="M79.9162 18.5047L79.9526 27.3866H74.1866V10.786H79.9162V12.785C81.5309 11.4256 82.878 10.4384 84.7072 10.4384C88.1465 10.4384 90.4737 12.5072 90.4737 16.0559V27.4067H84.7072V18.5047C84.7072 16.3847 83.6357 15.5818 82.3767 15.5818C80.7574 15.5818 79.9162 17.1191 79.9162 18.5047Z" fill="#FFFFFF"></path>
<path d="M23.0953 33.1237H22.2927C22.2613 32.8125 22.0255 32.6308 21.6153 32.6308C21.2051 32.6308 20.9786 32.8185 20.9786 33.0737C20.9731 33.3576 21.2614 33.4854 21.6056 33.5645L21.9616 33.6496C22.6504 33.8039 23.1478 34.154 23.1495 34.8132C23.1478 35.5379 22.5729 36 21.6115 36C20.6501 36 20.0366 35.5571 20.0155 34.7008H20.8258C20.8529 35.0971 21.1763 35.298 21.6018 35.298C22.0272 35.298 22.302 35.1009 22.3041 34.8111C22.302 34.5443 22.0624 34.4208 21.631 34.3165L21.1992 34.2079C20.5298 34.0476 20.1179 33.7133 20.1196 33.1297C20.1158 32.4106 20.739 31.9314 21.6212 31.9314C22.5035 31.9314 23.0839 32.4183 23.0953 33.1237Z" fill="#FFFFFF"></path>
<path d="M2.455 31.9853V34.4845C2.455 34.9368 2.13792 35.2634 1.65022 35.2634C1.16252 35.2634 0.845434 34.9368 0.845434 34.4845V31.9853H0.00762939V34.5559C0.00762939 35.422 0.661702 36 1.65022 36C2.63874 36 3.29281 35.422 3.29281 34.5559V31.9853H2.455Z" fill="#FFFFFF"></path>
<path d="M7.23629 31.9853H6.4023V34.4747H6.36758L4.65726 31.9853H3.9219V35.9436H4.75971V33.4525H4.78892L6.51279 35.9436H7.23629V31.9853Z" fill="#FFFFFF"></path>
<path d="M7.86878 31.9853H8.70659V35.9436H7.86878V31.9853Z" fill="#FFFFFF"></path>
<path d="M10.0516 31.9853H9.12104L10.4889 35.9436H11.5684L12.9346 31.9853H12.0057L11.046 34.9928H11.0092L10.0516 31.9853Z" fill="#FFFFFF"></path>
<path d="M16.0292 35.9436H13.3511V31.9853H16.0208V32.6753H14.1889V33.6184H15.884V34.3088H14.1889V35.2536H16.0292V35.9436Z" fill="#FFFFFF"></path>
<path fill-rule="evenodd" clip-rule="evenodd" d="M16.6274 35.9436H17.4652V34.5405H18.0765L18.8271 35.9436H19.7521L18.9105 34.4054C19.3614 34.2117 19.6107 33.8197 19.6107 33.2785C19.6107 32.4919 19.0905 31.9853 18.1908 31.9853H16.6274V35.9436ZM17.4652 33.868V32.6697H18.03C18.5139 32.6697 18.748 32.8839 18.748 33.2785C18.748 33.6731 18.5139 33.868 18.0342 33.868H17.4652Z" fill="#FFFFFF"></path>
<path d="M24.4911 31.9853H23.6533V35.9436H24.4911V31.9853Z" fill="#FFFFFF"></path>
<path d="M26.1824 32.6753H24.9695V31.9853H28.2238V32.6753H27.0104V35.9436H26.1824V32.6753Z" fill="#FFFFFF"></path>
<path d="M28.4676 31.9853L29.9125 34.5443V35.9436H30.7448V34.5443L32.1897 31.9853H31.2515L30.3481 33.6902H30.3092L29.4057 31.9853H28.4676Z" fill="#FFFFFF"></path>
<path fill-rule="evenodd" clip-rule="evenodd" d="M35.5743 31.9314C36.6251 31.9314 37.4299 32.6697 37.4299 33.9646C37.4299 35.2595 36.6306 35.9978 35.5743 35.9978C34.5181 35.9978 33.7188 35.2595 33.7188 33.9646C33.7188 32.6697 34.5236 31.9314 35.5743 31.9314ZM35.5743 35.2574C36.1818 35.2574 36.5802 34.8034 36.5802 33.9646C36.5802 33.1259 36.184 32.6714 35.5743 32.6714C34.9647 32.6714 34.568 33.1259 34.568 33.9646C34.568 34.8034 34.9668 35.2574 35.5743 35.2574Z" fill="#FFFFFF"></path>
<path d="M37.9904 35.9436H38.8282V34.3088H40.4399V33.6184H38.8282V32.6753H40.6139V31.9853H37.9904V35.9436Z" fill="#FFFFFF"></path>
<path d="M45.2711 33.1237H44.468C44.4371 32.8125 44.2013 32.6308 43.7911 32.6308C43.3809 32.6308 43.1544 32.8185 43.1544 33.0737C43.1485 33.3576 43.4368 33.4854 43.7814 33.5645L44.1374 33.6496C44.8262 33.8039 45.3232 34.154 45.3253 34.8132C45.3232 35.5379 44.7483 36 43.7869 36C42.8255 36 42.212 35.5571 42.1908 34.7008H43.0016C43.0287 35.0971 43.3521 35.298 43.7776 35.298C44.203 35.298 44.4778 35.1009 44.4795 34.8111C44.4778 34.5443 44.2377 34.4208 43.8063 34.3165L43.375 34.2079C42.7056 34.0476 42.2933 33.7133 42.2954 33.1297C42.2916 32.4106 42.9144 31.9314 43.7966 31.9314C44.6789 31.9314 45.2593 32.4183 45.2711 33.1237Z" fill="#FFFFFF"></path>
<path fill-rule="evenodd" clip-rule="evenodd" d="M49.4699 33.9646C49.4699 32.6697 48.6651 31.9314 47.6144 31.9314C46.5636 31.9314 45.7593 32.6697 45.7593 33.9646C45.7593 35.2595 46.5581 35.9978 47.6144 35.9978C48.6706 35.9978 49.4699 35.2595 49.4699 33.9646ZM48.6207 33.9646C48.6207 34.8034 48.2219 35.2574 47.6144 35.2574C47.0069 35.2574 46.6085 34.8034 46.6085 33.9646C46.6085 33.1259 47.0052 32.6714 47.6144 32.6714C48.2236 32.6714 48.6207 33.1259 48.6207 33.9646Z" fill="#FFFFFF"></path>
<path d="M52.4782 34.4845V31.9853H53.316V34.5559C53.316 35.422 52.6615 36 51.673 36C50.6845 36 50.0304 35.422 50.0304 34.5559V31.9853H50.8682V34.4845C50.8682 34.9368 51.1853 35.2634 51.673 35.2634C52.1607 35.2634 52.4782 34.9368 52.4782 34.4845Z" fill="#FFFFFF"></path>
<path d="M53.7944 32.6753H55.0073V35.9436H55.8353V32.6753H57.0487V31.9853H53.7944V32.6753Z" fill="#FFFFFF"></path>
<path d="M58.3623 35.9436H57.5245V31.9853H58.3623V33.6184H60.0629V31.9853H60.8986V35.9436H60.0629V34.3088H58.3623V35.9436Z" fill="#FFFFFF"></path>
<path d="M66.2264 33.3712C66.1163 32.4568 65.4237 31.9314 64.5068 31.9314C63.4598 31.9314 62.661 32.6697 62.661 33.9646C62.661 35.2595 63.4463 35.9978 64.5068 35.9978C65.5673 35.9978 66.1358 35.3232 66.2264 34.5948L65.3793 34.5909C65.2997 35.0142 64.9669 35.2574 64.5203 35.2574C63.9183 35.2574 63.5102 34.8111 63.5102 33.9646C63.5102 33.1182 63.9128 32.6714 64.5258 32.6714C64.9843 32.6714 65.3154 32.936 65.3793 33.3712H66.2264Z" fill="#FFFFFF"></path>
<path fill-rule="evenodd" clip-rule="evenodd" d="M67.67 35.0411L67.3758 35.9436H66.4783L67.8461 31.9853H68.9257L70.2914 35.9436H69.3939L69.0997 35.0411H67.67ZM68.3702 32.8899L67.883 34.3879H68.8888L68.4011 32.8899H68.3702Z" fill="#FFFFFF"></path>
<path fill-rule="evenodd" clip-rule="evenodd" d="M70.7084 35.9436H71.5462V34.5405H72.1575L72.9085 35.9436H73.8331L72.9915 34.4054C73.4424 34.2117 73.6921 33.8197 73.6921 33.2785C73.6921 32.4919 73.1714 31.9853 72.2718 31.9853H70.7084V35.9436ZM71.5462 33.868V32.6697H72.1114C72.5948 32.6697 72.8289 32.8839 72.8289 33.2785C72.8289 33.6731 72.5948 33.868 72.1152 33.868H71.5462Z" fill="#FFFFFF"></path>
<path fill-rule="evenodd" clip-rule="evenodd" d="M76.01 31.9314C77.0603 31.9314 77.8651 32.6697 77.8651 33.9646C77.8651 35.2595 77.0667 35.9978 76.01 35.9978C74.9533 35.9978 74.1544 35.2595 74.1544 33.9646C74.1544 32.6697 74.9596 31.9314 76.01 31.9314ZM76.01 35.2574C76.6175 35.2574 77.0159 34.8034 77.0159 33.9646C77.0159 33.1259 76.6196 32.6714 76.01 32.6714C75.4004 32.6714 75.0037 33.1259 75.0037 33.9646C75.0037 34.8034 75.4025 35.2574 76.01 35.2574Z" fill="#FFFFFF"></path>
<path d="M78.426 35.9436H80.9623V35.2536H79.2638V31.9853H78.426V35.9436Z" fill="#FFFFFF"></path>
<path d="M81.4572 31.9853H82.295V35.9436H81.4572V31.9853Z" fill="#FFFFFF"></path>
<path d="M86.2385 31.9853H85.4045V34.4747H85.3698L83.6594 31.9853H82.9245V35.9436H83.7619V33.4525H83.7911L85.515 35.9436H86.2385V31.9853Z" fill="#FFFFFF"></path>
<path fill-rule="evenodd" clip-rule="evenodd" d="M87.8476 35.0411L87.5538 35.9436H86.6559L88.0237 31.9853H89.1033L90.4694 35.9436H89.5715L89.2777 35.0411H87.8476ZM88.5483 32.8899L88.0606 34.3879H89.0669L88.5792 32.8899H88.5483Z" fill="#FFFFFF"></path>
</g>
<defs>
<clipPath>
<rect width="90.4737" height="36" fill="white"></rect>
</clipPath>
</defs>
</svg>